<mxfile host="app.diagrams.net" modified="2020-10-13T02:37:02.299Z" agent="5.0 (Windows NT 10.0; Win64; x64) AppleWebKit/537.36 (KHTML, like Gecko) Chrome/86.0.4240.75 Safari/537.36 Edg/86.0.622.38" etag="etidvWN-mQsbQLn4r5V7" version="13.7.9" type="github">
  <diagram id="hLTDgD6SofZxdnZtOs8I" name="第 1 页">
    <mxGraphModel dx="852" dy="622" grid="1" gridSize="10" guides="1" tooltips="1" connect="1" arrows="1" fold="1" page="1" pageScale="1" pageWidth="827" pageHeight="1169" math="0" shadow="0">
      <root>
        <mxCell id="0" />
        <mxCell id="1" parent="0" />
        <mxCell id="yjFTeLBGDz7d2mx2C8Lj-25" style="edgeStyle=orthogonalEdgeStyle;rounded=0;orthogonalLoop=1;jettySize=auto;html=1;exitX=1;exitY=0.25;exitDx=0;exitDy=0;entryX=0;entryY=0.5;entryDx=0;entryDy=0;" edge="1" parent="1" source="yjFTeLBGDz7d2mx2C8Lj-1" target="yjFTeLBGDz7d2mx2C8Lj-2">
          <mxGeometry relative="1" as="geometry" />
        </mxCell>
        <mxCell id="yjFTeLBGDz7d2mx2C8Lj-26" style="edgeStyle=orthogonalEdgeStyle;rounded=0;orthogonalLoop=1;jettySize=auto;html=1;exitX=1;exitY=0.75;exitDx=0;exitDy=0;entryX=0;entryY=0.5;entryDx=0;entryDy=0;" edge="1" parent="1" source="yjFTeLBGDz7d2mx2C8Lj-1" target="yjFTeLBGDz7d2mx2C8Lj-3">
          <mxGeometry relative="1" as="geometry" />
        </mxCell>
        <mxCell id="yjFTeLBGDz7d2mx2C8Lj-1" value="&lt;font face=&quot;宋体&quot;&gt;时钟&lt;/font&gt;&lt;font face=&quot;Times New Roman&quot;&gt;ADF4350&lt;/font&gt;" style="rounded=0;whiteSpace=wrap;html=1;" vertex="1" parent="1">
          <mxGeometry x="210" y="200" width="120" height="40" as="geometry" />
        </mxCell>
        <mxCell id="yjFTeLBGDz7d2mx2C8Lj-9" style="edgeStyle=orthogonalEdgeStyle;rounded=0;orthogonalLoop=1;jettySize=auto;html=1;exitX=1;exitY=0.5;exitDx=0;exitDy=0;entryX=0;entryY=0.5;entryDx=0;entryDy=0;" edge="1" parent="1" source="yjFTeLBGDz7d2mx2C8Lj-2" target="yjFTeLBGDz7d2mx2C8Lj-4">
          <mxGeometry relative="1" as="geometry" />
        </mxCell>
        <mxCell id="yjFTeLBGDz7d2mx2C8Lj-2" value="DAC&lt;br&gt;AD9122" style="rounded=0;whiteSpace=wrap;html=1;" vertex="1" parent="1">
          <mxGeometry x="370" y="160" width="100" height="40" as="geometry" />
        </mxCell>
        <mxCell id="yjFTeLBGDz7d2mx2C8Lj-3" value="FPGA" style="rounded=0;whiteSpace=wrap;html=1;" vertex="1" parent="1">
          <mxGeometry x="370" y="240" width="100" height="40" as="geometry" />
        </mxCell>
        <mxCell id="yjFTeLBGDz7d2mx2C8Lj-10" style="edgeStyle=orthogonalEdgeStyle;rounded=0;orthogonalLoop=1;jettySize=auto;html=1;exitX=1;exitY=0.5;exitDx=0;exitDy=0;entryX=0;entryY=0.5;entryDx=0;entryDy=0;" edge="1" parent="1" source="yjFTeLBGDz7d2mx2C8Lj-4" target="yjFTeLBGDz7d2mx2C8Lj-6">
          <mxGeometry relative="1" as="geometry" />
        </mxCell>
        <mxCell id="yjFTeLBGDz7d2mx2C8Lj-4" value="&lt;font face=&quot;宋体&quot;&gt;滤波器&lt;/font&gt;&lt;font face=&quot;Times New Roman&quot;&gt;Filter&lt;/font&gt;" style="rounded=0;whiteSpace=wrap;html=1;" vertex="1" parent="1">
          <mxGeometry x="510" y="160" width="50" height="40" as="geometry" />
        </mxCell>
        <mxCell id="yjFTeLBGDz7d2mx2C8Lj-6" value="&lt;font face=&quot;宋体&quot;&gt;低功放大器&lt;/font&gt;" style="rounded=0;whiteSpace=wrap;html=1;" vertex="1" parent="1">
          <mxGeometry x="590" y="160" width="50" height="40" as="geometry" />
        </mxCell>
        <mxCell id="yjFTeLBGDz7d2mx2C8Lj-12" value="" style="verticalLabelPosition=bottom;shadow=0;dashed=0;align=center;html=1;verticalAlign=top;shape=mxgraph.electrical.radio.aerial_-_antenna_2;" vertex="1" parent="1">
          <mxGeometry x="650" y="150" width="19" height="30" as="geometry" />
        </mxCell>
        <mxCell id="yjFTeLBGDz7d2mx2C8Lj-15" value="" style="endArrow=none;html=1;exitX=1;exitY=0.5;exitDx=0;exitDy=0;" edge="1" parent="1" source="yjFTeLBGDz7d2mx2C8Lj-6">
          <mxGeometry width="50" height="50" relative="1" as="geometry">
            <mxPoint x="640" y="230" as="sourcePoint" />
            <mxPoint x="660" y="180" as="targetPoint" />
          </mxGeometry>
        </mxCell>
        <mxCell id="yjFTeLBGDz7d2mx2C8Lj-18" value="&lt;font face=&quot;Times New Roman&quot;&gt;CLK1&lt;/font&gt;" style="text;html=1;strokeColor=none;fillColor=none;align=center;verticalAlign=middle;whiteSpace=wrap;rounded=0;" vertex="1" parent="1">
          <mxGeometry x="310" y="170" width="40" height="20" as="geometry" />
        </mxCell>
        <mxCell id="yjFTeLBGDz7d2mx2C8Lj-19" value="&lt;font face=&quot;Times New Roman&quot;&gt;CLK2&lt;/font&gt;" style="text;html=1;strokeColor=none;fillColor=none;align=center;verticalAlign=middle;whiteSpace=wrap;rounded=0;" vertex="1" parent="1">
          <mxGeometry x="310" y="250" width="40" height="20" as="geometry" />
        </mxCell>
        <mxCell id="yjFTeLBGDz7d2mx2C8Lj-20" value="" style="endArrow=classic;html=1;exitX=0.5;exitY=0;exitDx=0;exitDy=0;entryX=0.5;entryY=1;entryDx=0;entryDy=0;" edge="1" parent="1" source="yjFTeLBGDz7d2mx2C8Lj-3" target="yjFTeLBGDz7d2mx2C8Lj-2">
          <mxGeometry width="50" height="50" relative="1" as="geometry">
            <mxPoint x="480" y="350" as="sourcePoint" />
            <mxPoint x="530" y="300" as="targetPoint" />
          </mxGeometry>
        </mxCell>
        <mxCell id="yjFTeLBGDz7d2mx2C8Lj-21" value="&lt;font face=&quot;Times New Roman&quot;&gt;Data&lt;/font&gt;" style="text;html=1;strokeColor=none;fillColor=none;align=center;verticalAlign=middle;whiteSpace=wrap;rounded=0;" vertex="1" parent="1">
          <mxGeometry x="380" y="210" width="40" height="20" as="geometry" />
        </mxCell>
      </root>
    </mxGraphModel>
  </diagram>
</mxfile>
